<mxfile host="app.diagrams.net" modified="2023-09-08T01:30:37.412Z" agent="Mozilla/5.0 (Macintosh; Intel Mac OS X 10_15_7) AppleWebKit/537.36 (KHTML, like Gecko) Chrome/116.0.0.0 Safari/537.36" etag="QbN0n5sf0ttWreUHM9hR" version="21.7.2" type="github">
  <diagram name="Home" id="_VmsS8ybzey6FkzCN3CJ">
    <mxGraphModel dx="1793" dy="850" grid="1" gridSize="10" guides="1" tooltips="1" connect="1" arrows="1" fold="1" page="1" pageScale="1" pageWidth="827" pageHeight="1169" math="0" shadow="0">
      <root>
        <mxCell id="0" />
        <mxCell id="1" parent="0" />
        <mxCell id="B-X8WiSEzw84tke4DwMs-1" value="인스타그램" style="text;strokeColor=none;align=center;fillColor=none;html=1;verticalAlign=middle;whiteSpace=wrap;rounded=0;" vertex="1" parent="1">
          <mxGeometry x="20" y="429" width="60" height="30" as="geometry" />
        </mxCell>
        <mxCell id="B-X8WiSEzw84tke4DwMs-2" value="&lt;font style=&quot;font-size: 14px;&quot;&gt;로딩(기기확인)&lt;br&gt;&lt;br&gt;1. 모바일인가?&lt;br&gt;2. 데스크탑인가?&lt;/font&gt;" style="whiteSpace=wrap;html=1;aspect=fixed;" vertex="1" parent="1">
          <mxGeometry x="130" y="489" width="120" height="120" as="geometry" />
        </mxCell>
        <mxCell id="B-X8WiSEzw84tke4DwMs-3" value="" style="endArrow=classic;html=1;rounded=0;exitX=1;exitY=0.5;exitDx=0;exitDy=0;" edge="1" parent="1">
          <mxGeometry width="50" height="50" relative="1" as="geometry">
            <mxPoint x="85" y="451" as="sourcePoint" />
            <mxPoint x="125" y="486" as="targetPoint" />
          </mxGeometry>
        </mxCell>
        <mxCell id="B-X8WiSEzw84tke4DwMs-6" value="모바일페이지 제공(MobileHome)" style="text;strokeColor=none;align=center;fillColor=none;html=1;verticalAlign=middle;whiteSpace=wrap;rounded=0;" vertex="1" parent="1">
          <mxGeometry x="450" y="543" width="330" height="30" as="geometry" />
        </mxCell>
        <mxCell id="B-X8WiSEzw84tke4DwMs-7" value="" style="edgeStyle=orthogonalEdgeStyle;rounded=0;orthogonalLoop=1;jettySize=auto;html=1;" edge="1" parent="1">
          <mxGeometry relative="1" as="geometry">
            <mxPoint x="240" y="573" as="sourcePoint" />
            <mxPoint x="480" y="599" as="targetPoint" />
            <Array as="points">
              <mxPoint x="290" y="573" />
              <mxPoint x="290" y="599" />
              <mxPoint x="340" y="599" />
            </Array>
          </mxGeometry>
        </mxCell>
        <mxCell id="B-X8WiSEzw84tke4DwMs-8" value="" style="edgeStyle=orthogonalEdgeStyle;rounded=0;orthogonalLoop=1;jettySize=auto;html=1;" edge="1" parent="1">
          <mxGeometry relative="1" as="geometry">
            <mxPoint x="240" y="559" as="sourcePoint" />
            <mxPoint x="480" y="559" as="targetPoint" />
          </mxGeometry>
        </mxCell>
        <mxCell id="B-X8WiSEzw84tke4DwMs-12" value="" style="edgeStyle=orthogonalEdgeStyle;rounded=0;orthogonalLoop=1;jettySize=auto;html=1;" edge="1" parent="1" source="B-X8WiSEzw84tke4DwMs-9" target="B-X8WiSEzw84tke4DwMs-11">
          <mxGeometry relative="1" as="geometry" />
        </mxCell>
        <mxCell id="B-X8WiSEzw84tke4DwMs-9" value="데스크탑 반응형 페이지 제공(DesktopHome)" style="text;strokeColor=none;align=center;fillColor=none;html=1;verticalAlign=middle;whiteSpace=wrap;rounded=0;" vertex="1" parent="1">
          <mxGeometry x="450" y="584" width="330" height="30" as="geometry" />
        </mxCell>
        <mxCell id="B-X8WiSEzw84tke4DwMs-11" value="~875px(중간)" style="whiteSpace=wrap;html=1;" vertex="1" parent="1">
          <mxGeometry x="555" y="679" width="120" height="60" as="geometry" />
        </mxCell>
        <mxCell id="B-X8WiSEzw84tke4DwMs-13" value="" style="edgeStyle=orthogonalEdgeStyle;rounded=0;orthogonalLoop=1;jettySize=auto;html=1;exitX=0.25;exitY=1;exitDx=0;exitDy=0;" edge="1" parent="1" target="B-X8WiSEzw84tke4DwMs-14" source="B-X8WiSEzw84tke4DwMs-9">
          <mxGeometry relative="1" as="geometry">
            <mxPoint x="484" y="614" as="sourcePoint" />
          </mxGeometry>
        </mxCell>
        <mxCell id="B-X8WiSEzw84tke4DwMs-14" value="~450px(작은)" style="whiteSpace=wrap;html=1;" vertex="1" parent="1">
          <mxGeometry x="424" y="679" width="120" height="60" as="geometry" />
        </mxCell>
        <mxCell id="B-X8WiSEzw84tke4DwMs-15" value="" style="edgeStyle=orthogonalEdgeStyle;rounded=0;orthogonalLoop=1;jettySize=auto;html=1;" edge="1" parent="1" target="B-X8WiSEzw84tke4DwMs-16">
          <mxGeometry relative="1" as="geometry">
            <mxPoint x="700" y="619" as="sourcePoint" />
          </mxGeometry>
        </mxCell>
        <mxCell id="B-X8WiSEzw84tke4DwMs-16" value="876px~(큰)" style="whiteSpace=wrap;html=1;" vertex="1" parent="1">
          <mxGeometry x="675" y="679" width="120" height="60" as="geometry" />
        </mxCell>
        <mxCell id="B-X8WiSEzw84tke4DwMs-19" value="" style="endArrow=none;html=1;rounded=0;" edge="1" parent="1">
          <mxGeometry width="50" height="50" relative="1" as="geometry">
            <mxPoint x="734.29" y="585" as="sourcePoint" />
            <mxPoint x="730.0042857142857" y="559" as="targetPoint" />
            <Array as="points">
              <mxPoint x="774.29" y="565" />
            </Array>
          </mxGeometry>
        </mxCell>
        <mxCell id="B-X8WiSEzw84tke4DwMs-21" value="&lt;h1&gt;&lt;font style=&quot;font-size: 18px;&quot;&gt;어떻게 모바일과 데스크탑을 구분할 것인가?&lt;/font&gt;&lt;/h1&gt;" style="text;html=1;strokeColor=none;fillColor=none;spacing=5;spacingTop=-20;whiteSpace=wrap;overflow=hidden;rounded=0;" vertex="1" parent="1">
          <mxGeometry x="610" y="459" width="210" height="70" as="geometry" />
        </mxCell>
      </root>
    </mxGraphModel>
  </diagram>
</mxfile>
